<svg xmlns="http://www.w3.org/2000/svg" xmlns:xlink="http://www.w3.org/1999/xlink" width="500" zoomAndPan="magnify" viewBox="0 0 375 374.999991" height="500" preserveAspectRatio="xMidYMid meet" version="1.0"><defs><clipPath id="08978f5de4"><path d="M 28.347656 28.347656 L 100 28.347656 L 100 100 L 28.347656 100 Z M 28.347656 28.347656 " clip-rule="nonzero"/></clipPath><clipPath id="374f997e73"><path d="M 28.347656 110 L 100 110 L 100 183 L 28.347656 183 Z M 28.347656 110 " clip-rule="nonzero"/></clipPath><clipPath id="c67ca9d1b4"><path d="M 28.347656 192 L 100 192 L 100 265 L 28.347656 265 Z M 28.347656 192 " clip-rule="nonzero"/></clipPath><clipPath id="cf73a5d084"><path d="M 28.347656 274 L 100 274 L 100 346.347656 L 28.347656 346.347656 Z M 28.347656 274 " clip-rule="nonzero"/></clipPath><clipPath id="6e0018740a"><path d="M 110 274 L 183 274 L 183 346.347656 L 110 346.347656 Z M 110 274 " clip-rule="nonzero"/></clipPath><clipPath id="93766849ba"><path d="M 192 274 L 265 274 L 265 346.347656 L 192 346.347656 Z M 192 274 " clip-rule="nonzero"/></clipPath><clipPath id="519e752d6f"><path d="M 274 274 L 346.347656 274 L 346.347656 346.347656 L 274 346.347656 Z M 274 274 " clip-rule="nonzero"/></clipPath></defs><g clip-path="url(#08978f5de4)"><path fill="#00a359" d="M 28.347656 28.347656 L 99.984375 28.347656 L 99.984375 99.984375 L 28.347656 99.984375 Z M 28.347656 28.347656 " fill-opacity="1" fill-rule="nonzero"/></g><g clip-path="url(#374f997e73)"><path fill="#00a359" d="M 28.347656 110.46875 L 99.984375 110.46875 L 99.984375 182.105469 L 28.347656 182.105469 Z M 28.347656 110.46875 " fill-opacity="1" fill-rule="nonzero"/></g><g clip-path="url(#c67ca9d1b4)"><path fill="#00a359" d="M 28.347656 192.589844 L 99.984375 192.589844 L 99.984375 264.226562 L 28.347656 264.226562 Z M 28.347656 192.589844 " fill-opacity="1" fill-rule="nonzero"/></g><g clip-path="url(#cf73a5d084)"><path fill="#00a359" d="M 28.347656 274.710938 L 99.984375 274.710938 L 99.984375 346.347656 L 28.347656 346.347656 Z M 28.347656 274.710938 " fill-opacity="1" fill-rule="nonzero"/></g><path fill="#00b764" d="M 110.46875 110.46875 L 182.105469 110.46875 L 182.105469 182.105469 L 110.46875 182.105469 Z M 110.46875 110.46875 " fill-opacity="1" fill-rule="nonzero"/><path fill="#00b764" d="M 110.46875 192.589844 L 182.105469 192.589844 L 182.105469 264.226562 L 110.46875 264.226562 Z M 110.46875 192.589844 " fill-opacity="1" fill-rule="nonzero"/><g clip-path="url(#6e0018740a)"><path fill="#00b764" d="M 110.46875 274.710938 L 182.105469 274.710938 L 182.105469 346.347656 L 110.46875 346.347656 Z M 110.46875 274.710938 " fill-opacity="1" fill-rule="nonzero"/></g><path fill="#00e17b" d="M 192.589844 192.589844 L 264.226562 192.589844 L 264.226562 264.226562 L 192.589844 264.226562 Z M 192.589844 192.589844 " fill-opacity="1" fill-rule="nonzero"/><g clip-path="url(#93766849ba)"><path fill="#00e17b" d="M 192.589844 274.710938 L 264.226562 274.710938 L 264.226562 346.347656 L 192.589844 346.347656 Z M 192.589844 274.710938 " fill-opacity="1" fill-rule="nonzero"/></g><g clip-path="url(#519e752d6f)"><path fill="#00ff8b" d="M 274.710938 274.710938 L 346.347656 274.710938 L 346.347656 346.347656 L 274.710938 346.347656 Z M 274.710938 274.710938 " fill-opacity="1" fill-rule="nonzero"/></g></svg>